HIERARCHY
ROOT Hips
{
 OFFSET 0.000000 0.000000 0.000000
 CHANNELS 6 Xposition Yposition Zposition Yrotation Xrotation Zrotation
 JOINT Chest
 {
  OFFSET 0.000000 9.585900 0.002600
  CHANNELS 3 Yrotation Xrotation Zrotation
  JOINT Chest2
  {
   OFFSET 0.000000 9.601200 -0.005300
   CHANNELS 3 Yrotation Xrotation Zrotation
   JOINT Chest3
   {
    OFFSET 0.000000 9.561800 0.000000
    CHANNELS 3 Yrotation Xrotation Zrotation
    JOINT Chest4
    {
     OFFSET 0.000000 9.552100 0.000000
     CHANNELS 3 Yrotation Xrotation Zrotation
     JOINT Neck
     {
      OFFSET 0.000000 14.453000 0.000000
      CHANNELS 3 Yrotation Xrotation Zrotation
      JOINT Head
      {
       OFFSET 0.000000 8.936500 -0.011300
       CHANNELS 3 Yrotation Xrotation Zrotation
       End Site
       {
        OFFSET 0.000000 17.073600 -0.006000
       }
      }
     }
     JOINT RightCollar
     {
      OFFSET -2.921100 9.558500 0.000000
      CHANNELS 3 Yrotation Xrotation Zrotation
      JOINT RightShoulder
      {
       OFFSET -13.519700 0.000000 0.000000
       CHANNELS 3 Yrotation Xrotation Zrotation
       JOINT RightElbow
       {
        OFFSET 0.000000 -29.696600 0.000000
        CHANNELS 3 Yrotation Xrotation Zrotation
        JOINT RightWrist
        {
         OFFSET 0.000000 -24.004700 0.000000
         CHANNELS 3 Yrotation Xrotation Zrotation
         End Site
         {
          OFFSET 0.000000 -17.728500 0.000000
         }
        }
       }
      }
     }
     JOINT LeftCollar
     {
      OFFSET 2.921100 9.558500 0.000000
      CHANNELS 3 Yrotation Xrotation Zrotation
      JOINT LeftShoulder
      {
       OFFSET 13.519700 0.000000 0.000000
       CHANNELS 3 Yrotation Xrotation Zrotation
       JOINT LeftElbow
       {
        OFFSET 0.000000 -29.696600 0.000000
        CHANNELS 3 Yrotation Xrotation Zrotation
        JOINT LeftWrist
        {
         OFFSET 0.000000 -24.004700 0.000000
         CHANNELS 3 Yrotation Xrotation Zrotation
         End Site
         {
          OFFSET 0.000000 -17.728500 0.000000
         }
        }
       }
      }
     }
    }
   }
  }
 }
 JOINT RightHip
 {
  OFFSET -7.771700 -0.012900 -0.001300
  CHANNELS 3 Yrotation Xrotation Zrotation
  JOINT RightKnee
  {
   OFFSET 0.000000 -40.869800 0.001200
   CHANNELS 3 Yrotation Xrotation Zrotation
   JOINT RightAnkle
   {
    OFFSET 0.000000 -39.717900 0.002100
    CHANNELS 3 Yrotation Xrotation Zrotation
    JOINT RightToe
    {
     OFFSET 0.000000 -4.965400 11.033500
     CHANNELS 3 Yrotation Xrotation Zrotation
     End Site
     {
      OFFSET 0.000000 -1.423100 5.872300
     }
    }
   }
  }
 }
 JOINT LeftHip
 {
  OFFSET 7.771700 -0.012900 -0.001300
  CHANNELS 3 Yrotation Xrotation Zrotation
  JOINT LeftKnee
  {
   OFFSET 0.000000 -40.869800 0.001200
   CHANNELS 3 Yrotation Xrotation Zrotation
   JOINT LeftAnkle
   {
    OFFSET 0.000000 -39.717900 0.002100
    CHANNELS 3 Yrotation Xrotation Zrotation
    JOINT LeftToe
    {
     OFFSET 0.000000 -4.965400 11.033500
     CHANNELS 3 Yrotation Xrotation Zrotation
     End Site
     {
      OFFSET 0.000000 -1.423100 5.872300
     }
    }
   }
  }
 }
}
MOTION
Frames: 11
Frame Time: 0.008333
-218.794294 57.670853 -73.006121 162.071531 -5.997350 0.335018 4.721136 5.317926 1.327880 0.186537 0.232217 0.012882 0.309476 0.405192 0.020517 4.244274 5.219179 0.477837 -1.373011 17.829156 -1.242596 -2.131135 -2.701388 -1.811801 3.069011 6.521040 1.499029 3.357603 -13.625749 -17.468933 -47.902723 -63.375910 79.157506 -4.122248 0.195014 -12.642504 -5.568456 5.593352 0.438722 6.056394 -7.436272 11.014305 46.875672 -65.672586 -91.537017 -3.726813 4.855372 2.784878 -18.184524 -65.711301 7.850481 -32.948220 73.213661 -33.601849 -3.726709 -8.209016 -1.342327 -0.214288 0.847852 -0.152694 -2.335738 -68.406769 16.338540 42.983443 64.554726 35.949133 -17.559198 -9.153850 2.884401 -0.263095 -1.022347 -0.158411
-218.803491 57.669746 -72.990993 162.022852 -6.042807 0.341764 4.830553 5.360843 1.344965 0.189560 0.235695 0.013364 0.265092 0.406006 0.013491 4.329139 5.258649 0.496570 -1.480869 17.781973 -1.247240 -2.376682 -2.806634 -1.750273 3.344059 6.282784 1.488891 3.380698 -14.243269 -17.837116 -49.537919 -63.760948 80.787176 -4.085735 0.103712 -12.237751 -5.758817 5.329338 0.335063 5.458425 -8.234601 11.462481 47.818052 -65.684740 -92.493368 -3.796632 4.739377 2.496969 -18.179150 -65.665276 7.836877 -32.853701 73.206780 -33.487890 -3.649368 -8.253944 -1.359415 -0.260756 0.907743 -0.172805 -2.280612 -68.375686 16.302146 43.017636 64.541264 35.995008 -17.485265 -9.071636 2.910472 -0.354929 -1.126585 -0.187827
-218.817226 57.668065 -72.973490 162.054732 -6.051160 0.346944 4.849680 5.361361 1.350681 0.191984 0.238377 0.013723 0.283180 0.420417 0.015145 4.343168 5.275234 0.503265 -1.624984 17.724610 -1.224298 -2.586935 -2.885796 -1.715599 3.603242 6.070633 1.460262 3.424946 -14.941700 -18.291447 -51.181816 -64.030570 82.467347 -4.094977 0.001634 -11.897374 -5.938249 5.062961 0.224372 4.930427 -9.044342 11.936079 48.840973 -65.812848 -93.539116 -3.877328 4.661630 2.145896 -18.228892 -65.658639 7.820282 -32.834322 73.187779 -33.441484 -3.635943 -8.247801 -1.391185 -0.234188 0.915963 -0.161816 -2.255194 -68.396591 16.199241 43.038332 64.517429 36.051228 -17.430661 -9.025578 2.942910 -0.396113 -1.176971 -0.220271
-218.832597 57.666440 -72.958805 162.100206 -6.053911 0.350893 4.851131 5.346845 1.352194 0.193765 0.240145 0.014015 0.287909 0.436378 0.020081 4.362344 5.278304 0.504906 -1.751189 17.683919 -1.210369 -2.823937 -2.960988 -1.647538 3.843785 5.884320 1.425511 3.471278 -15.731635 -18.833467 -52.743177 -64.169330 84.126517 -4.127636 -0.100537 -11.628665 -6.104709 4.813472 0.118414 4.468044 -9.890302 12.416073 49.871212 -65.999811 -94.618921 -3.956739 4.608774 1.757080 -18.367420 -65.651511 7.839739 -32.701622 73.192052 -33.300156 -3.575501 -8.253479 -1.411123 -0.268936 0.929358 -0.169097 -2.245038 -68.412780 16.122189 43.023499 64.495889 36.043509 -17.389607 -8.978773 2.964019 -0.406925 -1.216872 -0.221715
-218.844271 57.666112 -72.957423 162.133337 -6.117951 0.346776 4.864425 5.381961 1.363813 0.194903 0.240944 0.014281 0.329230 0.429099 0.025403 4.337481 5.292100 0.506843 -1.881298 17.652247 -1.190021 -3.070517 -3.019007 -1.566281 4.068678 5.717455 1.393678 3.491998 -16.603536 -19.441522 -54.159540 -64.205299 85.713215 -4.165011 -0.192084 -11.429520 -6.259037 4.583098 0.023127 4.076359 -10.777931 12.899316 50.866691 -66.191834 -95.711524 -4.026931 4.572736 1.359665 -18.467896 -65.580282 7.830379 -32.582275 73.203990 -33.172206 -3.530879 -8.262486 -1.418901 -0.276419 0.934050 -0.197175 -2.230911 -68.369276 16.057731 43.048437 64.491227 36.092094 -17.377494 -8.960287 2.967621 -0.405012 -1.247702 -0.216256
-218.856491 57.665687 -72.957299 162.182389 -6.164540 0.336149 4.858804 5.389939 1.374515 0.195191 0.240706 0.014435 0.342474 0.422347 0.025955 4.310530 5.319403 0.513849 -1.994344 17.606715 -1.168689 -3.322713 -3.054522 -1.474824 4.305545 5.540464 1.361801 3.474849 -17.535500 -20.087437 -55.429376 -64.186980 87.214451 -4.193972 -0.262211 -11.299753 -6.373250 4.341705 -0.061272 3.765971 -11.703758 13.389227 51.786930 -66.343948 -96.800541 -4.080353 4.547315 0.968385 -18.573125 -65.526033 7.826988 -32.515361 73.214554 -33.087736 -3.506631 -8.275582 -1.443759 -0.260683 0.937636 -0.193670 -2.264894 -68.333233 16.037021 43.035174 64.493719 36.077108 -17.361507 -8.951558 2.985228 -0.413312 -1.252496 -0.216939
-218.869704 57.665303 -72.960076 162.227354 -6.200795 0.329993 4.834526 5.404879 1.378556 0.204743 0.229058 0.012736 0.332662 0.432998 0.027875 4.314760 5.319256 0.516983 -2.118843 17.560257 -1.147163 -3.579257 -3.065307 -1.374885 4.525919 5.360343 1.330570 3.425694 -18.497957 -20.744579 -56.574857 -64.164597 88.630528 -4.203823 -0.305990 -11.237363 -6.476055 4.104803 -0.133939 3.538507 -12.668067 13.890320 52.599502 -66.420612 -97.866227 -4.112126 4.520175 0.582542 -18.664206 -65.483938 7.815325 -32.454253 73.231926 -33.005570 -3.495081 -8.297191 -1.468208 -0.251467 0.944223 -0.189608 -2.282348 -68.307786 16.006729 43.040777 64.495246 36.077782 -17.362030 -8.940491 2.986703 -0.409280 -1.274435 -0.194208
-218.880671 57.665033 -72.965720 162.279599 -6.232011 0.312239 4.803064 5.412273 1.391676 0.194686 0.239724 0.014492 0.367353 0.374501 0.014672 4.327100 5.262355 0.512611 -2.278313 17.611592 -1.103237 -3.844205 -3.053436 -1.264157 4.696517 5.268069 1.331243 3.361949 -19.454395 -21.393556 -57.637442 -64.181389 89.973654 -4.192238 -0.323103 -11.237194 -6.604256 3.976189 -0.180387 3.387041 -13.660766 14.404106 53.299934 -66.408496 -98.899159 -4.122715 4.473509 0.204957 -18.776945 -65.443163 7.822865 -32.403104 73.254921 -32.928124 -3.485688 -8.319372 -1.502242 -0.231294 0.945722 -0.176228 -2.288335 -68.295932 15.964491 43.062048 64.494536 36.109529 -17.371412 -8.923563 3.004533 -0.455489 -1.303040 -0.196738
-218.887379 57.665194 -72.976267 162.349877 -6.273874 0.277565 4.795823 5.347771 1.400570 0.168495 0.287977 0.029543 0.372411 0.345058 0.005383 4.324370 5.228481 0.509956 -2.425037 17.646207 -1.058515 -4.116681 -3.023310 -1.142781 4.868573 5.148177 1.331525 3.299220 -20.369817 -22.024565 -58.663744 -64.260471 91.258424 -4.164791 -0.313648 -11.282862 -6.708005 3.834130 -0.212722 3.302727 -14.660110 14.929228 53.909384 -66.315835 -99.909835 -4.116447 4.401274 -0.163449 -18.915122 -65.385693 7.843379 -32.364652 73.281965 -32.858432 -3.481123 -8.336059 -1.537484 -0.210613 0.938199 -0.150563 -2.218105 -68.291435 15.850647 43.052913 64.503950 36.154833 -17.388252 -8.903786 3.026860 -0.479704 -1.337397 -0.203963
-218.896066 57.665414 -72.989661 162.393112 -6.304035 0.266031 4.790448 5.290725 1.387236 0.184783 0.251402 0.019621 0.344672 0.391062 0.019443 4.321123 5.196953 0.501986 -2.566093 17.667356 -1.015396 -4.390782 -2.981017 -1.016923 5.043481 5.001801 1.330027 3.246430 -21.220835 -22.637477 -59.697229 -64.400261 92.505801 -4.127241 -0.288605 -11.347167 -6.791650 3.674731 -0.235322 3.281453 -15.647211 15.462188 54.452182 -66.158403 -100.917805 -4.099682 4.316580 -0.521846 -18.980429 -65.347056 7.816422 -32.323380 73.312476 -32.783558 -3.478840 -8.366939 -1.574988 -0.186423 0.940097 -0.140983 -2.151449 -68.279715 15.765517 43.042380 64.523274 36.154853 -17.391855 -8.901827 3.047509 -0.498085 -1.348753 -0.192950
-218.904683 57.666679 -73.013968 162.407432 -6.374104 0.283699 4.796097 5.289674 1.351567 0.190919 0.230395 0.013500 0.335195 0.404448 0.024308 4.314621 5.162374 0.490485 -2.705910 17.691740 -0.972497 -4.662402 -2.932146 -0.892137 5.218422 4.849199 1.326786 3.212524 -21.995628 -23.237633 -60.779341 -64.581736 93.752137 -4.085705 -0.261642 -11.408067 -6.860042 3.516041 -0.248352 3.312230 -16.606600 15.999806 54.958595 -65.955171 -101.931090 -4.079414 4.230942 -0.869999 -18.924381 -65.280313 7.698946 -32.309236 73.344875 -32.738264 -3.508453 -8.404610 -1.613783 -0.142801 0.947296 -0.111929 -1.981397 -68.227531 15.616013 43.132568 64.557951 36.209285 -17.359937 -8.920754 3.094863 -0.565382 -1.367797 -0.182202
